<svg width="132" height="132" viewBox="0 0 132 132" fill="none" xmlns="http://www.w3.org/2000/svg">
<path fill-rule="evenodd" clip-rule="evenodd" d="M55 6.875C40.5716 6.875 28.875 18.5716 28.875 33C28.875 47.4284 40.5716 59.125 55 59.125C69.4284 59.125 81.125 47.4284 81.125 33C81.125 18.5716 69.4284 6.875 55 6.875ZM37.125 33C37.125 23.1279 45.1279 15.125 55 15.125C64.8721 15.125 72.875 23.1279 72.875 33C72.875 42.8721 64.8721 50.875 55 50.875C45.1279 50.875 37.125 42.8721 37.125 33Z" fill="#1976D2"/>
<path d="M124.073 74.2515C125.593 72.5542 125.449 69.9463 123.751 68.4267C122.054 66.9071 119.446 67.0512 117.927 68.7485L99.3963 89.446C95.6414 93.6399 93.1128 96.4495 90.9509 98.2666C88.8914 99.9977 87.6817 100.375 86.625 100.375C85.5683 100.375 84.3586 99.9977 82.2991 98.2666C80.1372 96.4495 77.6085 93.6399 73.8537 89.446L69.0733 84.1065C67.5536 82.4092 64.9458 82.2651 63.2485 83.7847C61.5512 85.3043 61.4071 87.9122 62.9267 89.6095L67.9113 95.177C71.4084 99.0833 74.3256 102.342 76.9909 104.582C79.8104 106.952 82.8516 108.625 86.625 108.625C90.3984 108.625 93.4396 106.952 96.2591 104.582C98.9244 102.342 101.841 99.0835 105.339 95.1771L124.073 74.2515Z" fill="#1976D2"/>
<path d="M38.5 67.375C24.0716 67.375 12.375 79.0716 12.375 93.5C12.375 107.928 24.0716 119.625 38.5 119.625H71.5C73.7782 119.625 75.625 117.778 75.625 115.5C75.625 113.222 73.7782 111.375 71.5 111.375H38.5C28.6279 111.375 20.625 103.372 20.625 93.5C20.625 83.6279 28.6279 75.625 38.5 75.625H71.5C73.7782 75.625 75.625 73.7782 75.625 71.5C75.625 69.2218 73.7782 67.375 71.5 67.375H38.5Z" fill="#1976D2"/>
</svg>
