<svg width="136" height="136" viewBox="0 0 136 136" fill="none" xmlns="http://www.w3.org/2000/svg">
<path d="M77.9167 56.6667C77.9167 54.3195 76.0139 52.4167 73.6667 52.4167C71.3195 52.4167 69.4167 54.3195 69.4167 56.6667V69.4167H56.6667C54.3195 69.4167 52.4167 71.3195 52.4167 73.6667C52.4167 76.0139 54.3195 77.9167 56.6667 77.9167H69.4167V90.6667C69.4167 93.0139 71.3195 94.9167 73.6667 94.9167C76.0139 94.9167 77.9167 93.0139 77.9167 90.6667V77.9167H90.6667C93.0139 77.9167 94.9167 76.0139 94.9167 73.6667C94.9167 71.3195 93.0139 69.4167 90.6667 69.4167H77.9167V56.6667Z" fill="#1976D2"/>
<path fill-rule="evenodd" clip-rule="evenodd" d="M109.819 18.9729C105.25 15.6532 99.898 14.1667 93.2933 13.4511C86.8212 12.7499 78.6635 12.75 68.2564 12.75H67.9373C61.3637 12.75 55.7119 12.75 50.8545 12.9164C40.2383 13.2801 32.4354 14.429 26.1813 18.9729C23.4152 20.9826 20.9826 23.4152 18.9729 26.1813C14.429 32.4354 13.2801 40.2383 12.9164 50.8545C12.75 55.712 12.75 61.3638 12.75 67.9375V68.2565C12.75 78.6635 12.7499 86.8212 13.4511 93.2933C14.1667 99.898 15.6532 105.249 18.9729 109.819C20.9826 112.585 23.4152 115.017 26.1813 117.027C30.7505 120.347 36.102 121.833 42.7067 122.549C49.1787 123.25 57.3363 123.25 67.743 123.25H68.2565C78.6633 123.25 86.8213 123.25 93.2933 122.549C99.898 121.833 105.25 120.347 109.819 117.027C112.585 115.017 115.017 112.585 117.027 109.819C120.347 105.249 121.833 99.898 122.549 93.2933C123.25 86.8213 123.25 78.6637 123.25 68.257V67.7435C123.25 57.3367 123.25 49.1787 122.549 42.7067C121.833 36.102 120.347 30.7505 117.027 26.1813C115.017 23.4152 112.585 20.9826 109.819 18.9729ZM68 21.25C78.7189 21.25 86.4167 21.2558 92.3777 21.9017C98.2592 22.5389 101.944 23.758 104.823 25.8495C106.867 27.335 108.665 29.133 110.15 31.1775C112.242 34.0562 113.461 37.7408 114.098 43.6223C114.744 49.5833 114.75 57.2811 114.75 68C114.75 78.7189 114.744 86.4167 114.098 92.3777C113.461 98.2592 112.242 101.944 110.15 104.822C108.665 106.867 106.867 108.665 104.823 110.15C101.944 112.242 98.2592 113.461 92.3777 114.098C86.4167 114.744 78.7189 114.75 68 114.75C57.2811 114.75 49.5833 114.744 43.6223 114.098C37.7408 113.461 34.0562 112.242 31.1775 110.15C29.133 108.665 27.335 106.867 25.8495 104.822C23.758 101.944 22.5389 98.2592 21.9017 92.3777C21.2558 86.4167 21.25 78.7189 21.25 68C21.25 63.1927 21.2503 58.9799 21.3113 55.2397C24.001 55.2149 25.9811 55.1312 27.7638 54.8488C41.706 52.6406 52.6406 41.706 54.8488 27.7638C55.1312 25.9811 55.2149 24.001 55.2397 21.3113C58.9799 21.2503 63.1927 21.25 68 21.25ZM26.4341 46.4535C25.2723 46.6375 23.9268 46.7077 21.6322 46.7342C22.1635 39.0256 23.3815 34.5744 25.8495 31.1775C27.335 29.133 29.133 27.335 31.1775 25.8495C34.5744 23.3815 39.0256 22.1635 46.7342 21.6322C46.7077 23.9268 46.6375 25.2723 46.4535 26.4341C44.8213 36.7392 36.7392 44.8213 26.4341 46.4535Z" fill="#1976D2"/>
</svg>
