<svg width="185" height="185" viewBox="0 0 185 185" fill="none" xmlns="http://www.w3.org/2000/svg">
<path d="M61.6667 69.375C61.6667 73.6322 65.1178 77.0833 69.375 77.0833C73.6322 77.0833 77.0833 73.6322 77.0833 69.375C77.0833 65.1178 73.6322 61.6667 69.375 61.6667C65.1178 61.6667 61.6667 65.1178 61.6667 69.375Z" fill="#1976D2"/>
<path d="M107.917 115.625C107.917 119.882 111.368 123.333 115.625 123.333C119.882 123.333 123.333 119.882 123.333 115.625C123.333 111.368 119.882 107.917 115.625 107.917C111.368 107.917 107.917 111.368 107.917 115.625Z" fill="#1976D2"/>
<path d="M117.068 76.108C119.326 73.8503 119.326 70.1898 117.068 67.9321C114.81 65.6744 111.15 65.6744 108.892 67.9321L65.287 111.537C63.0293 113.795 63.0293 117.455 65.287 119.713C67.5448 121.971 71.2052 121.971 73.463 119.713L117.068 76.108Z" fill="#1976D2"/>
<path fill-rule="evenodd" clip-rule="evenodd" d="M126.906 18.2975C118.102 17.3436 107.005 17.3437 92.8488 17.3437H92.1512C77.9946 17.3437 66.8976 17.3436 58.0937 18.2975C49.1093 19.2709 41.8297 21.2929 35.6143 25.8087C31.8515 28.5425 28.5425 31.8515 25.8087 35.6143C21.2929 41.8297 19.2709 49.1093 18.2975 58.0937C17.3436 66.8976 17.3437 77.9946 17.3438 92.1512V92.8488C17.3437 107.005 17.3436 118.102 18.2975 126.906C19.2709 135.891 21.2929 143.17 25.8087 149.386C28.5425 153.148 31.8515 156.457 35.6143 159.191C41.8297 163.707 49.1093 165.729 58.0937 166.703C66.8975 167.656 77.9942 167.656 92.1505 167.656H92.849C107.005 167.656 118.103 167.656 126.906 166.703C135.891 165.729 143.17 163.707 149.386 159.191C153.148 156.458 156.458 153.148 159.191 149.386C163.707 143.17 165.729 135.891 166.703 126.906C167.656 118.103 167.656 107.006 167.656 92.8496V92.151C167.656 77.9947 167.656 66.8975 166.703 58.0937C165.729 49.1093 163.707 41.8297 159.191 35.6143C156.458 31.8515 153.148 28.5425 149.386 25.8087C143.17 21.2929 135.891 19.2709 126.906 18.2975ZM42.4106 35.1629C46.3264 32.3179 51.3385 30.6595 59.3391 29.7927C67.4479 28.9142 77.9191 28.9062 92.5 28.9062C107.081 28.9062 117.552 28.9142 125.661 29.7927C133.661 30.6595 138.674 32.3179 142.589 35.1629C145.371 37.1836 147.816 39.6294 149.837 42.4106C152.682 46.3264 154.34 51.3385 155.207 59.3391C156.086 67.4479 156.094 77.9191 156.094 92.5C156.094 107.081 156.086 117.552 155.207 125.661C154.34 133.661 152.682 138.674 149.837 142.589C147.816 145.371 145.371 147.816 142.589 149.837C138.674 152.682 133.661 154.34 125.661 155.207C117.552 156.086 107.081 156.094 92.5 156.094C77.9191 156.094 67.4479 156.086 59.3391 155.207C51.3385 154.34 46.3264 152.682 42.4106 149.837C39.6294 147.816 37.1836 145.371 35.1629 142.589C32.3179 138.674 30.6595 133.661 29.7927 125.661C28.9142 117.552 28.9063 107.081 28.9063 92.5C28.9063 77.9191 28.9142 67.4479 29.7927 59.3391C30.6595 51.3385 32.3179 46.3264 35.1629 42.4106C37.1836 39.6294 39.6294 37.1836 42.4106 35.1629Z" fill="#1976D2"/>
</svg>
