<svg width="104" height="104" viewBox="0 0 104 104" fill="none" xmlns="http://www.w3.org/2000/svg">
<path fill-rule="evenodd" clip-rule="evenodd" d="M69.1305 18.7438C65.7588 16.797 62.9472 15.1736 60.5418 14.185C58.003 13.1416 55.4736 12.6103 52.7775 13.3327C50.0814 14.0551 48.1565 15.7799 46.4795 17.953C44.8908 20.0118 43.2675 22.8235 41.3209 26.1954L24.5266 55.2836C23.3975 57.2355 22.4752 58.83 22.009 60.5422C21.9424 60.7868 21.8851 61.0338 21.8378 61.2846C21.4598 63.291 21.7683 65.3052 22.1584 67.8527L22.2635 68.5413C22.9837 73.2705 23.5773 77.1686 24.4725 80.1246C25.4088 83.2162 26.8482 85.8921 29.679 87.5265C32.5099 89.1609 35.5469 89.0694 38.6925 88.3345C41.7001 87.6318 45.3727 86.1968 49.8284 84.4559L50.4773 84.2026C52.8785 83.2668 54.7771 82.5268 56.3257 81.1962C57.8742 79.8657 58.8917 78.1001 60.1784 75.8671L76.9723 46.7788C78.9191 43.407 80.5425 40.5954 81.5311 38.1901C82.5746 35.6512 83.1059 33.1219 82.3835 30.4257C81.661 27.7296 79.9363 25.8047 77.7632 24.1278C75.7043 22.539 72.8926 20.9158 69.5208 18.9692L69.1305 18.7438ZM69.6055 46.5385L45.2124 32.4551L30.3775 58.1499C28.7614 60.9492 28.3726 61.7072 28.2255 62.4881C28.0783 63.269 28.1646 64.1166 28.6513 67.3121C29.4194 72.355 29.9499 75.7853 30.6935 78.2405C31.4118 80.6122 32.1525 81.449 32.929 81.8973C33.7055 82.3456 34.8005 82.5687 37.2136 82.005C39.7117 81.4213 42.9477 80.1656 47.6991 78.3093C50.7098 77.133 51.4869 76.784 52.0896 76.2661C52.6923 75.7483 53.1544 75.0325 54.7706 72.2332L69.6055 46.5385ZM72.8487 40.9054C74.0666 38.7592 74.9449 37.1163 75.5191 35.7191C76.2861 33.8529 76.3117 32.8794 76.105 32.108C75.8983 31.3366 75.3894 30.5063 73.7921 29.2737C72.1201 27.9834 69.6934 26.5744 66.0756 24.4857C62.4579 22.397 60.0243 20.9999 58.0709 20.1971C56.2047 19.43 55.2312 19.4045 54.4598 19.6112C53.6884 19.8179 52.8581 20.3268 51.6255 21.9241C50.7026 23.12 49.7189 24.7021 48.4692 26.8299L72.8487 40.9054Z" fill="#1976D2"/>
</svg>
