<svg width="175" height="175" viewBox="0 0 175 175" fill="none" xmlns="http://www.w3.org/2000/svg">
<path d="M97.0685 54.3345C94.9233 52.2084 91.4607 52.2239 89.3345 54.369C87.2084 56.5142 87.2239 59.9768 89.369 62.103L99.653 72.2956C103.845 76.4503 106.655 79.2469 108.544 81.5994C108.631 81.7073 108.714 81.813 108.795 81.9167L58.2187 81.9167C55.1984 81.9167 52.75 84.3651 52.75 87.3854C52.75 90.4057 55.1984 92.8542 58.2187 92.8542L108.795 92.8542C108.714 92.9578 108.631 93.0636 108.544 93.1714C106.655 95.5239 103.845 98.3205 99.653 102.475L89.369 112.668C87.2239 114.794 87.2084 118.257 89.3345 120.402C91.4607 122.547 94.9233 122.562 97.0685 120.436L107.577 110.021C111.486 106.147 114.747 102.915 117.072 100.02C119.511 96.9837 121.365 93.7925 121.861 89.9047C121.968 89.0683 122.021 88.2269 122.021 87.3854C122.021 86.5439 121.968 85.7025 121.861 84.8662C121.365 80.9783 119.511 77.7871 117.072 74.7507C114.747 71.8558 111.487 68.6243 107.577 64.7498L97.0685 54.3345Z" fill="#001328"/>
<path fill-rule="evenodd" clip-rule="evenodd" d="M87.3854 9C44.0943 9 9 44.0943 9 87.3854C9 130.676 44.0943 165.771 87.3854 165.771C130.676 165.771 165.771 130.676 165.771 87.3854C165.771 44.0943 130.676 9 87.3854 9ZM19.9375 87.3854C19.9375 50.135 50.135 19.9375 87.3854 19.9375C124.636 19.9375 154.833 50.135 154.833 87.3854C154.833 124.636 124.636 154.833 87.3854 154.833C50.135 154.833 19.9375 124.636 19.9375 87.3854Z" fill="#001328"/>
</svg>
