<svg width="122" height="122" viewBox="0 0 122 122" fill="none" xmlns="http://www.w3.org/2000/svg">
<path fill-rule="evenodd" clip-rule="evenodd" d="M32.7586 16.5208C18.1755 16.5208 6.35352 28.3428 6.35352 42.9259C6.35352 47.1539 8.77817 51.0072 12.5898 52.8368L15.0672 54.026C20.9183 56.8345 20.9183 65.1655 15.0672 67.974L12.5898 69.1632C8.77817 70.9928 6.35352 74.8461 6.35352 79.0741C6.35352 93.6572 18.1755 105.479 32.7586 105.479H89.2401C103.823 105.479 115.645 93.6572 115.645 79.0741C115.645 74.8461 113.221 70.9928 109.409 69.1632L106.931 67.974C101.08 65.1655 101.08 56.8345 106.931 54.026L109.409 52.8368C113.221 51.0072 115.645 47.1539 115.645 42.9259C115.645 28.3428 103.823 16.5208 89.2401 16.5208H32.7586ZM13.9785 42.9259C13.9785 32.554 22.3866 24.1458 32.7586 24.1458H89.2401C99.612 24.1458 108.02 32.554 108.02 42.9259C108.02 44.2214 107.277 45.4021 106.109 45.9627L103.632 47.1519C92.0136 52.7286 92.0136 69.2713 103.632 74.8481L106.109 76.0373C107.277 76.5979 108.02 77.7786 108.02 79.0741C108.02 89.446 99.612 97.8542 89.2401 97.8542H32.7586C22.3866 97.8542 13.9785 89.446 13.9785 79.0741C13.9785 77.7786 14.7214 76.5979 15.8894 76.0373L18.3668 74.8481C29.9851 69.2713 29.9851 52.7286 18.3668 47.1519L15.8893 45.9627C14.7214 45.4021 13.9785 44.2214 13.9785 42.9259Z" fill="#1976D2"/>
<path d="M74.9785 24.1458C74.9785 24.1458 73.3709 24.1458 71.2653 24.1458C69.1597 24.1458 67.3535 24.1458 67.3535 24.1458V25.7556C67.3535 27.8611 69.0604 29.568 71.166 29.568C73.2716 29.568 74.9785 27.8611 74.9785 25.7556V24.1458Z" fill="#1976D2"/>
<path d="M74.9785 42.0222C74.9785 39.9166 73.2716 38.2097 71.166 38.2097C69.0604 38.2097 67.3535 39.9166 67.3535 42.0222V52.8667C67.3535 54.9722 69.0604 56.6792 71.166 56.6792C73.2716 56.6792 74.9785 54.9722 74.9785 52.8667V42.0222Z" fill="#1976D2"/>
<path d="M74.9785 69.1333C74.9785 67.0277 73.2716 65.3208 71.166 65.3208C69.0604 65.3208 67.3535 67.0277 67.3535 69.1333V79.9778C67.3535 82.0834 69.0604 83.7903 71.166 83.7903C73.2716 83.7903 74.9785 82.0834 74.9785 79.9778V69.1333Z" fill="#1976D2"/>
<path d="M74.9785 96.2444C74.9785 94.1388 73.2716 92.4319 71.166 92.4319C69.0604 92.4319 67.3535 94.1388 67.3535 96.2444V97.8542H71.166H74.9785V96.2444Z" fill="#1976D2"/>
</svg>
